<svg width="1063.000000" height="1266.000000" viewBox="0 0 1063 1266" fill="none" xmlns="http://www.w3.org/2000/svg" xmlns:xlink="http://www.w3.org/1999/xlink">
	<desc>
			Created with Pixso.
	</desc>
	<defs/>
	<g opacity="0.298270">
		<path id="Shape" d="M1007.08 933.44L442.18 413.14L442.18 22.81L27.1 0C23.9 7.54 3.36 29.28 6.57 41.4C10.43 55.89 29.83 51.26 35.47 60.59C42.06 71.58 30.72 116.25 27.34 129.14C20.87 153.55 6.09 173.33 1.82 197.75C-5.36 238.73 9.18 235.47 36.72 261.07C83.14 304.25 45.92 349.04 57.61 399.77C67.11 441.12 108.6 462.44 123.8 503.78C135.55 535.63 151.69 543.76 176.74 567.05C176.15 552.91 163.5 511.21 187.25 514.89C210.81 518.52 201.73 553.33 206.24 567.88C210.04 580 236.93 604.23 214.61 615.4C207.19 619.09 186.06 604.41 177.57 600.49C183.57 619.2 179.77 638.63 189.27 656.51C200.6 677.83 212.83 669.64 227.85 681.22C243.34 693.16 241.68 706.88 234.79 724.94C227.61 743.77 220.19 740.86 231.59 763.55C239.84 779.95 253.85 800.74 265.9 813.21C272.9 820.46 280.5 822.12 287.5 831.39C293.32 839.11 291.06 849.21 298.01 856.16C309.88 868.1 330 868.28 339.38 883.9C349.83 901.3 337.96 914.43 368.7 912.83C370.3 947.64 376.89 979.18 376.54 1013.99C393.69 1020.82 421.41 1012.69 439.39 1009.06C457.26 1033.18 480.35 1016.43 500.77 1029.56C509.67 1035.26 507.83 1049.52 513.23 1054.51C524.33 1064.72 532.52 1058.31 546.3 1061.87C556.51 1064.49 564.4 1071.97 574.13 1074.69C583.33 1077.26 598.47 1071.26 605.3 1079.4C613.49 1089.14 599.78 1106.96 612.12 1114.8C622.39 1121.32 637.11 1105.77 647.08 1108.03C658.72 1110.69 692.07 1141.17 700.27 1151.21C709.59 1162.68 718.96 1184.06 724.25 1198.79C732.5 1221.84 731.37 1233.13 748.4 1250C759.27 1260.75 748.94 1261.52 766.63 1264.67C778.2 1266.75 793.51 1258.37 805.21 1257.06C829.54 1254.39 854.12 1259.03 878.1 1254.44C900.42 1250.18 921.72 1243.17 944.64 1239.9C964.46 1237.05 999.36 1239.25 1016.94 1229.8C1035.99 1219.64 1037.71 1196.65 1010.17 1200.93C1007.97 1186.26 1017.77 1166 1006.85 1155.85C1022.04 1135.06 1027.56 1120.38 1029.93 1094.96C1031 1083.79 1031.48 1071.43 1037 1062.05C1042.4 1052.78 1057.59 1047.26 1060.56 1039.3C1065.13 1026.93 1057.82 1021.42 1052.25 1014.53C1048.68 1010.07 1038.54 1012.21 1035.63 1008.29C1030.23 1001.1 1035.56 993.67 1032.6 986.43C1023.94 965.46 1013.61 957.2 1007.08 933.44C1007.26 937.42 1007.44 941.46 1007.2 945.38" stroke="#FFFFFF" stroke-opacity="1.000000" stroke-width="2.000000" stroke-linejoin="round" stroke-linecap="round"/>
	</g>
</svg>
