<svg width="467.000000" height="322.000000" viewBox="0 0 467 322" fill="none" xmlns="http://www.w3.org/2000/svg" xmlns:xlink="http://www.w3.org/1999/xlink">
	<desc>
			Created with Pixso.
	</desc>
	<defs/>
	<path d="M14 32L182 32L182 223L14 223L14 32Z" fill="#4AF6CD" fill-opacity="1.000000" fill-rule="evenodd"/>
	<path d="M182 32L182 223L14 223L14 32L182 32Z" stroke="#979797" stroke-opacity="0" stroke-width="0.000000"/>
	<g opacity="0.065402">
		<path d="M103.69 8.54Q90 2.42 73.58 2.42Q56.11 2.42 41.94 9.26Q40.23 10.08 38.57 11.01Q33.88 13.63 29.8 16.98Q20.48 24.63 14.3 36.11Q5.41 52.61 5.41 75.41Q5.41 116.23 25.69 134.29Q41.77 148.61 70.6 148.61Q83.78 148.61 97.36 144.6Q110.98 140.6 121.77 133.37L121.77 64.18L66.6 64.18L70.21 89.58L85.98 89.58L85.98 118.19Q85.01 118.69 84.02 119.12Q77.42 122 69.58 122Q60.78 122 55.12 117.78Q55 117.69 54.88 117.6Q49.21 113.21 46.38 103.1Q43.6 92.99 43.6 75.61Q43.6 51.78 52.09 40.21Q55.92 34.97 61.07 32.1Q67.35 28.59 75.58 28.59Q83.39 28.59 89.5 31.13Q95.6 33.62 103.22 38.99L121.38 20Q113.2 12.79 103.69 8.54ZM236.16 12.92Q221.15 2.42 198.79 2.42Q178.82 2.42 164.51 11.21Q160.37 13.75 156.79 16.94Q148.03 24.75 142.69 36.4Q135.22 52.81 135.22 75.41Q135.22 110.18 151.91 129.42Q156.26 134.42 161.53 138.11Q176.47 148.61 198.79 148.61Q218.81 148.61 233.21 139.82Q237.54 137.16 241.25 133.81Q249.86 126.02 255.09 114.48Q262.61 97.97 262.61 75.41Q262.61 40.8 245.81 21.61Q241.44 16.61 236.16 12.92ZM186.73 32.17Q191.75 28.98 198.79 28.98Q206.17 28.98 211.3 32.38Q215.34 35.05 217.98 39.82Q223.98 50.61 223.98 75.41Q223.98 100.42 217.98 111.21Q215.36 115.92 211.37 118.57Q206.22 122 198.79 122Q192.13 122 187.26 119.05Q182.77 116.33 179.8 111.11Q173.59 100.17 173.59 75.41Q173.59 50.61 179.7 39.82Q182.49 34.86 186.73 32.17ZM86.66 163.01Q74.6 158.42 58.78 158.42Q43.99 158.42 32.08 163.5Q21.89 167.85 15.49 175.41Q14.43 176.66 13.47 178Q11.44 180.84 10.03 183.97Q6.78 191.14 6.78 199.77Q6.78 210.99 11.59 219.48Q13.57 222.97 16.35 226Q25.97 236.4 49.6 243.82Q59.42 246.8 64.5 249.29Q69.58 251.78 71.58 254.9Q73.58 257.98 73.58 262.81Q73.58 266.4 72.12 269.23Q70.82 271.76 68.35 273.7Q63.18 277.8 53.8 277.8Q51.35 277.8 48.93 277.55Q33.53 275.95 19.18 264.18L0.97 284.39Q6.8 289.99 13.56 294.04Q31.2 304.61 55.17 304.61Q72.6 304.61 85.49 298.99Q97.64 293.7 104.37 284.46Q104.78 283.9 105.17 283.32Q107 280.61 108.34 277.68Q112.01 269.67 112.01 259.98Q112.01 243.77 104.12 233.83Q103.16 232.62 102.1 231.51Q92.18 221.21 70.8 214.37Q59.61 210.81 54.39 208.42Q49.21 205.98 47.02 203.39Q46.64 202.95 46.33 202.47Q44.82 200.12 44.82 196.8Q44.82 193.58 46.23 191.2Q47.28 189.42 49.12 188.1Q53.41 184.98 61.62 184.98Q64.18 184.98 66.72 185.28Q79.73 186.84 91.79 196.41L108.39 176.78Q101.98 170.66 94.46 166.58Q90.7 164.54 86.66 163.01ZM231.77 277.72Q236.8 267.27 236.8 254.41L236.8 161.98L199.59 161.98L199.59 253.19Q199.59 265.6 195.19 271.6Q194.45 272.61 193.55 273.45Q189.11 277.61 180.79 277.61Q172.33 277.61 167.81 273.39Q166.98 272.61 166.29 271.7Q161.8 265.79 161.8 253.19L161.8 161.98L124.78 161.98L124.78 254.41Q124.78 272.02 132.97 284.06Q135.57 287.87 138.99 291.13Q153.2 304.61 180.79 304.61Q199 304.61 211.6 298.11Q221.14 293.16 227.06 285.44Q228.97 282.96 230.5 280.19Q231.17 278.98 231.77 277.72ZM293.2 249.77L303.4 249.77L330.6 301L371.81 301L337.19 242.99Q350.57 236.01 356.67 227.22Q362.78 218.38 362.78 205.19Q362.78 188.94 354.88 178.91Q352.07 175.35 348.28 172.58Q333.77 161.98 304.38 161.98L256.19 161.98L256.19 301L293.2 301L293.2 249.77ZM380.19 161.98L380.19 301L417.2 301L417.2 247.77L456.41 247.77L456.41 221.6L417.2 221.6L417.2 188.2L461.78 188.2L465.59 161.98L380.19 161.98ZM305.6 224.58L293.2 224.58L293.2 187.81L303.6 187.81Q314.19 187.81 319.47 192.01Q320.32 192.69 321.04 193.48Q324.79 197.65 324.79 205.19Q324.79 214.99 319.9 219.83Q315.1 224.58 305.6 224.58Z" fill="#FFFFFF" fill-opacity="1.000000" fill-rule="evenodd"/>
	</g>
	<path d="M82.6 178.99Q81.22 182.61 81.22 187.36Q81.22 191.8 82.75 195.37Q84.05 198.43 86.32 200.35Q86.69 200.67 87.1 200.95Q87.95 201.56 88.89 201.99Q91.04 202.96 93.63 202.96Q96.99 202.96 99.54 201.52Q100.59 200.92 101.5 200.09Q104.62 197.2 106.84 190.11Q107.74 187.17 108.48 185.64Q109.23 184.12 110.17 183.52Q111.09 182.92 112.54 182.92Q113.62 182.92 114.47 183.36Q115.23 183.75 115.81 184.49Q117.04 186.04 117.04 188.85Q117.04 189.59 116.96 190.32Q116.48 194.94 112.95 199.24L119.02 204.7Q120.69 202.95 121.91 200.93Q125.08 195.63 125.08 188.44Q125.08 183.21 123.39 179.35Q121.81 175.7 119.03 173.68Q118.87 173.56 118.69 173.44Q117.88 172.89 117 172.49Q114.6 171.39 111.69 171.39Q106.83 171.39 103.84 173.76Q103.48 174.04 103.15 174.37Q100.06 177.34 98.01 183.76Q96.94 187.11 96.22 188.68Q95.49 190.23 94.71 190.89Q94.58 191 94.44 191.09Q93.73 191.55 92.74 191.55Q91.77 191.55 91.06 191.13Q90.52 190.81 90.13 190.26Q89.19 188.97 89.19 186.51Q89.19 185.74 89.28 184.98Q89.75 181.07 92.62 177.46L86.73 172.48Q84.89 174.4 83.67 176.66Q83.06 177.78 82.6 178.99ZM117.01 135.46Q113.88 133.96 110.02 133.96L82.29 133.96L82.29 145.12L109.65 145.12Q113.38 145.12 115.18 146.44Q115.48 146.66 115.73 146.93Q116.98 148.26 116.98 150.76Q116.98 153.29 115.71 154.65Q115.48 154.9 115.21 155.11Q113.43 156.46 109.65 156.46L82.29 156.46L82.29 167.56L110.02 167.56Q115.3 167.56 118.91 165.1Q120.06 164.32 121.04 163.3Q125.08 159.03 125.08 150.76Q125.08 145.29 123.13 141.51Q121.65 138.65 119.33 136.87Q118.58 136.3 117.76 135.84Q117.39 135.64 117.01 135.46ZM108.63 117.03L108.63 113.97L124 105.81L124 93.45L106.59 103.84Q104.5 99.82 101.86 97.99Q99.21 96.16 95.25 96.16Q90.38 96.16 87.37 98.53Q86.3 99.37 85.47 100.51Q82.29 104.86 82.29 113.68L82.29 128.14L124 128.14L124 117.03L108.63 117.03ZM82.29 90.94L124 90.94L124 79.83L108.03 79.83L108.03 68.07L100.18 68.07L100.18 79.83L90.16 79.83L90.16 66.46L82.29 65.32L82.29 90.94ZM101.07 113.31L101.07 117.03L90.04 117.03L90.04 113.91Q90.04 110.74 91.3 109.15Q91.5 108.9 91.74 108.68Q92.99 107.56 95.25 107.56Q98.19 107.56 99.65 109.03Q101.07 110.46 101.07 113.31Z" fill="#FFFFFF" fill-opacity="1.000000" fill-rule="evenodd"/>
	<path d="M81.22 187.36Q81.22 182.61 82.6 178.99Q83.98 175.36 86.73 172.48L92.62 177.46Q89.19 181.78 89.19 186.51Q89.19 188.97 90.13 190.26Q91.05 191.55 92.74 191.55Q93.94 191.55 94.71 190.89Q95.49 190.23 96.22 188.68Q96.94 187.11 98.01 183.76Q100.06 177.34 103.15 174.37Q106.24 171.39 111.69 171.39Q115.66 171.39 118.69 173.44Q121.71 175.48 123.39 179.35Q125.08 183.21 125.08 188.44Q125.08 198.39 119.02 204.7L112.95 199.24Q117.04 194.26 117.04 188.85Q117.04 186.04 115.81 184.49Q114.58 182.92 112.54 182.92Q111.09 182.92 110.17 183.52Q109.23 184.12 108.48 185.64Q107.74 187.17 106.84 190.11Q104.62 197.2 101.5 200.09Q98.37 202.96 93.63 202.96Q89.91 202.96 87.1 200.95Q84.27 198.93 82.75 195.37Q81.22 191.8 81.22 187.36ZM110.02 133.96Q114.34 133.96 117.76 135.84Q121.17 137.73 123.13 141.51Q125.08 145.29 125.08 150.76Q125.08 159.03 121.04 163.3Q116.98 167.56 110.02 167.56L82.29 167.56L82.29 156.46L109.65 156.46Q113.43 156.46 115.21 155.11Q116.98 153.76 116.98 150.76Q116.98 147.75 115.18 146.44Q113.38 145.12 109.65 145.12L82.29 145.12L82.29 133.96L110.02 133.96ZM108.63 113.97L108.63 117.03L124 117.03L124 128.14L82.29 128.14L82.29 113.68Q82.29 104.86 85.47 100.51Q88.65 96.16 95.25 96.16Q99.21 96.16 101.86 97.99Q104.5 99.82 106.59 103.84L124 93.45L124 105.81L108.63 113.97ZM101.07 117.03L101.07 113.31Q101.07 107.56 95.25 107.56Q92.56 107.56 91.3 109.15Q90.04 110.74 90.04 113.91L90.04 117.03L101.07 117.03ZM124 90.94L82.29 90.94L82.29 65.32L90.16 66.46L90.16 79.83L100.18 79.83L100.18 68.07L108.03 68.07L108.03 79.83L124 79.83L124 90.94Z" stroke="#000000" stroke-opacity="1.000000" stroke-width="0.000000"/>
	<path d="M83.06 290.89Q81.22 294.99 81.22 299.92Q81.22 305.16 83.27 309.41Q83.52 309.92 83.8 310.42Q84.59 311.83 85.59 313.05Q87.89 315.85 91.33 317.7Q96.28 320.37 103.12 320.37Q115.37 320.37 120.78 314.29Q125.08 309.46 125.08 300.81Q125.08 296.86 123.88 292.79Q122.68 288.7 120.51 285.46L99.75 285.46L99.75 302.01L107.37 300.93L107.37 296.2L115.95 296.2Q116.1 296.49 116.23 296.79Q117.1 298.77 117.1 301.12Q117.1 303.76 115.83 305.46Q115.81 305.5 115.78 305.53Q114.46 307.23 111.43 308.08Q108.39 308.91 103.18 308.91Q96.03 308.91 92.56 306.37Q90.99 305.22 90.13 303.67Q89.07 301.79 89.07 299.32Q89.07 296.98 89.83 295.14Q90.58 293.31 92.19 291.03L86.5 285.58Q84.33 288.04 83.06 290.89ZM84.37 251.15Q81.22 255.65 81.22 262.36Q81.22 268.35 83.86 272.64Q84.62 273.88 85.58 274.96Q87.92 277.59 91.42 279.19Q96.34 281.43 103.12 281.43Q113.55 281.43 119.32 276.42Q120.82 275.12 121.93 273.54Q125.08 269.05 125.08 262.36Q125.08 256.35 122.44 252.03Q121.65 250.73 120.64 249.62Q118.3 247.03 114.84 245.47Q109.89 243.21 103.12 243.21Q92.74 243.21 86.98 248.25Q85.48 249.56 84.37 251.15ZM90.15 265.98Q89.19 264.47 89.19 262.36Q89.19 260.14 90.21 258.6Q91.01 257.39 92.44 256.6Q95.68 254.8 103.12 254.8Q110.62 254.8 113.86 256.6Q115.27 257.39 116.07 258.58Q117.1 260.13 117.1 262.36Q117.1 264.35 116.21 265.82Q115.4 267.16 113.83 268.06Q110.55 269.92 103.12 269.92Q95.68 269.92 92.44 268.08Q90.95 267.25 90.15 265.98Z" fill="#FFFFFF" fill-opacity="1.000000" fill-rule="evenodd"/>
	<rect x="97.000000" y="233.000000" width="20.000000" height="1.000000" transform="rotate(-90 97.000000 233.000000)" fill="#FFFFFF" fill-opacity="1.000000"/>
	<rect x="97.000000" y="233.000000" width="20.000000" height="1.000000" transform="rotate(-90 97.000000 233.000000)" stroke="#979797" stroke-opacity="0" stroke-width="0.000000"/>
</svg>
