<svg width="1063.000000" height="1266.000000" viewBox="0 0 1063 1266" fill="none" xmlns="http://www.w3.org/2000/svg" xmlns:xlink="http://www.w3.org/1999/xlink">
	<desc>
			Created with Pixso.
	</desc>
	<defs/>
	<g opacity="0.298270">
		<path d="M1007.08 933.44L442.18 413.14L442.18 22.81L27.1 0C23.9 7.54 3.36 29.28 6.57 41.4C10.43 55.89 29.83 51.26 35.47 60.59C42.06 71.58 30.72 116.25 27.34 129.14C20.87 153.55 6.09 173.33 1.82 197.75C-5.36 238.73 9.18 235.47 36.72 261.07C83.14 304.25 45.92 349.04 57.61 399.77C67.11 441.12 108.6 462.44 123.8 503.78C135.55 535.63 151.69 543.76 176.74 567.05C176.15 552.91 163.5 511.21 187.25 514.89C210.81 518.52 201.73 553.33 206.24 567.88C210.04 580 236.93 604.23 214.61 615.4C207.19 619.09 186.06 604.41 177.57 600.49C183.57 619.2 179.77 638.63 189.27 656.51C200.6 677.83 212.83 669.64 227.85 681.22C243.34 693.16 241.68 706.88 234.79 724.94C227.61 743.77 220.19 740.86 231.59 763.55C239.84 779.95 253.85 800.74 265.9 813.21C272.9 820.46 280.5 822.12 287.5 831.39C293.32 839.11 291.06 849.21 298.01 856.16C309.88 868.1 330 868.28 339.38 883.9C349.83 901.3 337.96 914.43 368.7 912.83C370.3 947.64 376.89 979.18 376.54 1013.99C393.69 1020.82 421.41 1012.69 439.39 1009.06C457.26 1033.18 480.35 1016.43 500.77 1029.56C509.67 1035.26 507.83 1049.52 513.23 1054.51C524.33 1064.72 532.52 1058.31 546.3 1061.87C556.51 1064.49 564.4 1071.97 574.13 1074.69C583.33 1077.26 598.47 1071.26 605.3 1079.4C613.49 1089.14 599.78 1106.96 612.12 1114.8C622.39 1121.32 637.11 1105.77 647.08 1108.03C658.72 1110.69 692.07 1141.17 700.27 1151.21C709.59 1162.68 718.96 1184.06 724.25 1198.79C732.5 1221.84 731.37 1233.13 748.4 1250C759.27 1260.75 748.94 1261.52 766.63 1264.67C778.2 1266.75 793.51 1258.37 805.21 1257.06C829.54 1254.39 854.12 1259.03 878.1 1254.44C900.42 1250.18 921.72 1243.17 944.64 1239.9C964.46 1237.05 999.36 1239.25 1016.94 1229.8C1035.99 1219.64 1037.71 1196.65 1010.17 1200.93C1007.97 1186.26 1017.77 1166 1006.85 1155.85C1022.04 1135.06 1027.56 1120.38 1029.93 1094.96C1031 1083.79 1031.48 1071.43 1037 1062.05C1042.4 1052.78 1057.59 1047.26 1060.56 1039.3C1065.13 1026.93 1057.82 1021.42 1052.25 1014.53C1048.68 1010.07 1038.54 1012.21 1035.63 1008.29C1030.23 1001.1 1035.56 993.67 1032.6 986.43C1023.94 965.46 1013.61 957.2 1007.08 933.44C1007.26 937.42 1007.44 941.46 1007.2 945.38" stroke="#FFFFFF" stroke-opacity="1.000000" stroke-width="2.000000" stroke-linejoin="round" stroke-linecap="round"/>
	</g>
	<path d="" fill="#D8D8D8" fill-opacity="0" fill-rule="nonzero"/>
	<path d="M728.11 853.93C719.54 877.32 739.61 885.52 755.67 900.8C760.43 905.33 760.88 912.81 755.87 917.34C745.1 927.07 704.26 912.91 706.85 925.74C709.53 938.99 744.06 957.53 745.61 958.79C759.28 969.93 763.73 998.17 756.2 1013.66C750.85 1024.68 715.34 1020.96 704.17 1017.29C631.02 993.26 663.98 996.13 581.81 988.67C575.52 988.09 568.93 987.8 562.89 989.65C556.67 991.54 556.86 999.33 558.95 1003.55C565.87 1017.51 596.84 1041.18 588.51 1059.52C585.95 1065.15 579.96 1068.71 577.26 1074.27C575.15 1078.63 575.38 1083.77 574.44 1088.52" stroke="#FFFFFF" stroke-opacity="1.000000" stroke-width="2.000000"/>
	<path d="M572.5 1096C576.09 1096 579 1093.09 579 1089.5C579 1085.91 576.09 1083 572.5 1083C568.9 1083 566 1085.91 566 1089.5C566 1093.09 568.9 1096 572.5 1096Z" fill="#4AF6CD" fill-opacity="1.000000" fill-rule="evenodd"/>
	<path d="M579 1089.5C579 1085.91 576.09 1083 572.5 1083C568.9 1083 566 1085.91 566 1089.5C566 1093.09 568.9 1096 572.5 1096C576.09 1096 579 1093.09 579 1089.5Z" stroke="#979797" stroke-opacity="0" stroke-width="0.000000"/>
	<path d="M660 1133C661.65 1133 663 1131.66 663 1130C663 1128.34 661.65 1127 660 1127C658.34 1127 657 1128.34 657 1130C657 1131.66 658.34 1133 660 1133Z" fill="#4AF6CD" fill-opacity="1.000000" fill-rule="evenodd"/>
	<path d="M663 1130C663 1128.34 661.65 1127 660 1127C658.34 1127 657 1128.34 657 1130C657 1131.66 658.34 1133 660 1133C661.65 1133 663 1131.66 663 1130Z" stroke="#979797" stroke-opacity="0" stroke-width="0.000000"/>
	<path d="M724 1241C725.65 1241 727 1239.66 727 1238C727 1236.34 725.65 1235 724 1235C722.34 1235 721 1236.34 721 1238C721 1239.66 722.34 1241 724 1241Z" fill="#4AF6CD" fill-opacity="1.000000" fill-rule="evenodd"/>
	<path d="M727 1238C727 1236.34 725.65 1235 724 1235C722.34 1235 721 1236.34 721 1238C721 1239.66 722.34 1241 724 1241C725.65 1241 727 1239.66 727 1238Z" stroke="#979797" stroke-opacity="0" stroke-width="0.000000"/>
	<path d="M364 998C365.65 998 367 996.65 367 995C367 993.34 365.65 992 364 992C362.34 992 361 993.34 361 995C361 996.65 362.34 998 364 998Z" fill="#4AF6CD" fill-opacity="1.000000" fill-rule="evenodd"/>
	<path d="M367 995C367 993.34 365.65 992 364 992C362.34 992 361 993.34 361 995C361 996.65 362.34 998 364 998C365.65 998 367 996.65 367 995Z" stroke="#979797" stroke-opacity="0" stroke-width="0.000000"/>
	<path d="M728.5 861C732.09 861 735 858.09 735 854.5C735 850.91 732.09 848 728.5 848C724.91 848 722 850.91 722 854.5C722 858.09 724.91 861 728.5 861Z" fill="#4AF6CD" fill-opacity="1.000000" fill-rule="evenodd"/>
	<path d="M735 854.5C735 850.91 732.09 848 728.5 848C724.91 848 722 850.91 722 854.5C722 858.09 724.91 861 728.5 861C732.09 861 735 858.09 735 854.5Z" stroke="#979797" stroke-opacity="0" stroke-width="0.000000"/>
	<path d="M473.4 1093.56L473.4 1079.18L473.05 1079.18L473.05 1093.56L473.4 1093.56ZM509.28 1079.67Q509.04 1079.52 508.7 1079.52Q508.41 1079.52 508.18 1079.65Q508.06 1079.71 507.96 1079.81Q507.85 1079.92 507.78 1080.06Q507.68 1080.27 507.68 1080.53Q507.68 1080.8 507.79 1081.01Q507.86 1081.14 507.96 1081.24Q508.05 1081.31 508.15 1081.38Q508.39 1081.52 508.7 1081.52Q509.06 1081.52 509.31 1081.36Q509.38 1081.31 509.45 1081.24Q509.56 1081.13 509.63 1081.01Q509.74 1080.8 509.74 1080.53Q509.74 1080.28 509.64 1080.06Q509.57 1079.93 509.45 1079.81Q509.37 1079.73 509.28 1079.67ZM503.9 1091.89Q504.33 1092.18 504.97 1092.18Q505.45 1092.18 505.87 1092.03Q506.01 1091.97 506.14 1091.9L505.76 1090.88Q505.51 1090.98 505.21 1090.98Q504.95 1090.98 504.83 1090.85Q504.81 1090.82 504.8 1090.81Q504.68 1090.66 504.68 1090.3L504.68 1080L503.21 1080.18L503.21 1090.34Q503.21 1091.15 503.61 1091.62Q503.65 1091.67 503.68 1091.69Q503.78 1091.81 503.9 1091.89ZM517.65 1083.67Q517.07 1083.38 516.35 1083.38Q515.7 1083.38 515.16 1083.62Q514.47 1083.93 513.96 1084.62L513.96 1080L512.49 1080.18L512.49 1092L513.79 1092L513.93 1091.06Q514.49 1091.76 515.2 1092.02Q515.65 1092.18 516.17 1092.18Q516.88 1092.18 517.46 1091.92Q517.71 1091.8 517.93 1091.64Q517.98 1091.61 518.02 1091.56Q518.71 1091.03 519.08 1090.09Q519.48 1089.09 519.48 1087.78Q519.48 1085.69 518.64 1084.54Q518.21 1083.96 517.65 1083.67ZM439.55 1083.81Q438.96 1083.38 438.04 1083.38Q437.5 1083.38 437.01 1083.56Q436.18 1083.87 435.55 1084.73L435.55 1080.03L434.08 1080.18L434.08 1092L435.55 1092L435.55 1086Q436 1085.3 436.51 1084.91Q436.74 1084.74 436.99 1084.65Q437.31 1084.53 437.68 1084.53Q438.25 1084.53 438.58 1084.81Q438.63 1084.85 438.68 1084.9Q439.02 1085.27 439.02 1086.16L439.02 1092L440.49 1092L440.49 1085.94Q440.49 1084.87 439.97 1084.21Q439.91 1084.14 439.84 1084.06Q439.71 1083.92 439.55 1083.81ZM430.04 1081.1Q429.26 1080.79 428.16 1080.79Q427.15 1080.79 426.36 1081.15Q425.69 1081.46 425.28 1081.97Q425.19 1082.06 425.12 1082.18Q424.97 1082.4 424.87 1082.65Q424.68 1083.12 424.68 1083.66Q424.68 1084.55 425.09 1085.17Q425.25 1085.41 425.46 1085.62Q426.25 1086.34 427.95 1086.85Q428.91 1087.14 429.41 1087.43Q429.91 1087.71 430.12 1088.06Q430.33 1088.43 430.33 1088.98Q430.33 1089.62 430.03 1090.05Q429.88 1090.27 429.66 1090.43Q429.63 1090.47 429.6 1090.49Q428.94 1090.94 427.96 1090.94Q427.12 1090.94 426.43 1090.66Q425.74 1090.38 425.07 1089.84L424.23 1090.77Q424.67 1091.18 425.18 1091.49Q426.37 1092.18 427.98 1092.18Q429.19 1092.18 430.08 1091.78Q430.86 1091.41 431.32 1090.8Q431.38 1090.72 431.44 1090.62Q431.55 1090.46 431.63 1090.28Q431.91 1089.67 431.91 1088.93Q431.91 1087.93 431.49 1087.29Q431.29 1086.98 431.03 1086.74Q430.74 1086.47 430.38 1086.27Q429.69 1085.9 428.65 1085.59Q427.66 1085.28 427.14 1085.01Q426.62 1084.73 426.43 1084.41Q426.23 1084.07 426.23 1083.6Q426.23 1083.11 426.46 1082.77Q426.59 1082.57 426.79 1082.43Q427.36 1082.03 428.22 1082.03Q428.87 1082.03 429.44 1082.24Q429.48 1082.25 429.51 1082.27Q430.11 1082.5 430.73 1082.99L431.56 1082.06Q430.83 1081.41 430.04 1081.1ZM545 1081.04Q544.32 1080.79 543.32 1080.79Q542.51 1080.79 541.8 1081.05Q541.38 1081.19 541 1081.43Q540.95 1081.48 540.89 1081.51Q539.93 1082.17 539.36 1083.39Q538.75 1084.67 538.75 1086.48Q538.75 1088.29 539.33 1089.57Q539.84 1090.71 540.72 1091.36Q540.84 1091.44 540.96 1091.53Q541.23 1091.69 541.51 1091.81Q542.35 1092.18 543.36 1092.18Q544.39 1092.18 545.2 1091.84Q546 1091.49 546.51 1090.96L545.75 1090Q545.16 1090.43 544.63 1090.67Q544.11 1090.91 543.4 1090.91Q542.7 1090.91 542.14 1090.63Q541.6 1090.36 541.2 1089.82Q540.36 1088.75 540.36 1086.48Q540.36 1084.14 541.2 1083.09Q541.6 1082.57 542.13 1082.31Q542.7 1082.03 543.42 1082.03Q543.63 1082.03 543.83 1082.06Q544.73 1082.18 545.55 1082.85L546.38 1081.87Q545.68 1081.3 545 1081.04ZM395.15 1092L397.39 1080.98L396 1080.98L394.15 1090.67L391.98 1080.98L390.36 1080.98L388.24 1090.67L386.46 1080.98L384.97 1080.98L387.21 1092L389.11 1092L391.17 1082.77L393.2 1092L395.15 1092ZM490.76 1092L492.24 1092L491.32 1080.98L489.26 1080.98L487.05 1088.99L484.73 1080.98L482.68 1080.98L481.77 1092L483.21 1092L483.58 1087.14Q483.79 1084.51 483.79 1082.51L486.3 1090.75L487.72 1090.75L490.11 1082.53Q490.14 1084.1 490.38 1087.02L490.76 1092ZM553.47 1089.23L554.3 1092L555.9 1092L552.38 1080.98L550.46 1080.98L546.93 1092L548.46 1092L549.29 1089.23L553.47 1089.23ZM418.95 1091.96Q419.29 1091.82 419.6 1091.62L419.03 1090.64Q418.41 1090.98 417.92 1090.98Q417.41 1090.98 417.18 1090.73Q417.16 1090.69 417.14 1090.68Q416.91 1090.38 416.91 1089.73L416.91 1084.69L418.75 1084.69L418.91 1083.56L416.91 1083.56L416.91 1081.49L415.44 1081.66L415.44 1083.56L413.96 1083.56L413.96 1084.69L415.44 1084.69L415.44 1089.79Q415.44 1090.93 416 1091.55Q416.02 1091.56 416.03 1091.57Q416.13 1091.68 416.24 1091.76Q416.8 1092.18 417.71 1092.18Q418.37 1092.18 418.95 1091.96ZM553.1 1088L549.66 1088L551.39 1082.24L553.1 1088ZM405.48 1088.29Q405.51 1087.9 405.51 1087.54Q405.51 1085.59 404.62 1084.48Q404.37 1084.17 404.06 1083.94Q403.25 1083.38 402.04 1083.38Q401.27 1083.38 400.64 1083.68Q400.4 1083.79 400.18 1083.94Q400.1 1084.01 400.02 1084.06Q399.35 1084.63 398.96 1085.54Q398.54 1086.56 398.54 1087.87Q398.54 1089.89 399.52 1091.04Q399.81 1091.37 400.16 1091.61Q401.02 1092.18 402.27 1092.18Q402.81 1092.18 403.33 1092.06Q404.32 1091.82 405.21 1091.14L404.57 1090.26Q404.01 1090.64 403.5 1090.81Q402.99 1090.99 402.38 1090.99Q401.8 1090.99 401.34 1090.75Q401.05 1090.59 400.81 1090.34Q400.2 1089.68 400.11 1088.29L405.48 1088.29ZM411.71 1083.62Q411.02 1083.38 410.16 1083.38Q409.29 1083.38 408.59 1083.67Q407.94 1083.94 407.55 1084.43Q407.53 1084.47 407.51 1084.5Q407.3 1084.78 407.21 1085.1Q407.12 1085.38 407.12 1085.69Q407.12 1086.28 407.36 1086.73Q407.5 1086.99 407.71 1087.19Q408.32 1087.79 409.66 1088.14Q410.49 1088.37 410.92 1088.56Q411.36 1088.77 411.53 1089.04Q411.71 1089.3 411.71 1089.73Q411.71 1090.02 411.59 1090.25Q411.47 1090.49 411.22 1090.66Q410.73 1091.01 409.9 1091.01Q409.39 1091.01 408.91 1090.88Q408.18 1090.68 407.53 1090.18L406.75 1091.09Q407.04 1091.35 407.37 1091.54Q408.46 1092.18 409.93 1092.18Q411.28 1092.18 412.23 1091.57Q412.26 1091.56 412.29 1091.54Q412.7 1091.25 412.94 1090.86Q413.26 1090.34 413.26 1089.63Q413.26 1088.9 412.92 1088.38Q412.77 1088.15 412.56 1087.97Q411.87 1087.36 410.46 1087.01Q409.44 1086.73 409.04 1086.44Q408.87 1086.31 408.78 1086.15Q408.65 1085.93 408.65 1085.65Q408.65 1085.39 408.76 1085.18Q408.86 1084.99 409.07 1084.84Q409.48 1084.54 410.2 1084.54Q410.77 1084.54 411.29 1084.71Q411.29 1084.72 411.3 1084.72Q411.82 1084.89 412.39 1085.27L413.02 1084.34Q412.39 1083.86 411.71 1083.62ZM448.7 1083.94Q447.85 1083.38 446.62 1083.38Q445.5 1083.38 444.68 1083.87Q444.63 1083.9 444.59 1083.93Q444.38 1084.06 444.19 1084.23Q443.63 1084.73 443.29 1085.48Q442.84 1086.48 442.84 1087.79Q442.84 1089.81 443.83 1091.01Q444.14 1091.37 444.52 1091.62Q445.37 1092.18 446.6 1092.18Q447.68 1092.18 448.48 1091.72Q448.55 1091.68 448.62 1091.64Q448.83 1091.5 449.02 1091.34Q449.58 1090.84 449.92 1090.09Q450.37 1089.09 450.37 1087.78Q450.37 1085.74 449.38 1084.56Q449.08 1084.19 448.7 1083.94ZM457.29 1083.47Q456.91 1083.38 456.46 1083.38Q456.03 1083.38 455.66 1083.53Q455.37 1083.64 455.12 1083.86Q454.54 1084.34 454.21 1085.28L454.06 1083.56L452.8 1083.56L452.8 1092L454.27 1092L454.27 1087.18Q454.54 1085.97 455.02 1085.39Q455.23 1085.14 455.5 1085Q455.84 1084.81 456.28 1084.81Q456.63 1084.81 457.02 1084.91L457.29 1083.47ZM464.83 1088.29Q464.86 1087.9 464.86 1087.54Q464.86 1085.59 463.96 1084.48Q463.71 1084.17 463.4 1083.94Q462.6 1083.38 461.39 1083.38Q460.61 1083.38 459.98 1083.68Q459.74 1083.79 459.52 1083.94Q459.44 1084.01 459.37 1084.06Q458.69 1084.63 458.31 1085.54Q457.88 1086.56 457.88 1087.87Q457.88 1089.89 458.87 1091.04Q459.15 1091.37 459.51 1091.61Q460.36 1092.18 461.61 1092.18Q462.16 1092.18 462.67 1092.06Q463.67 1091.82 464.56 1091.14L463.92 1090.26Q463.35 1090.64 462.84 1090.81Q462.33 1090.99 461.73 1090.99Q461.14 1090.99 460.68 1090.75Q460.39 1090.59 460.16 1090.34Q459.55 1089.68 459.45 1088.29L464.83 1088.29ZM500.6 1090.79Q500.43 1090.54 500.43 1090.03L500.43 1086.18Q500.43 1084.97 499.83 1084.26Q499.77 1084.18 499.69 1084.11Q498.95 1083.38 497.47 1083.38Q496.12 1083.38 494.56 1083.94L494.92 1085.02Q496.27 1084.56 497.2 1084.56Q498.09 1084.56 498.52 1084.96Q498.95 1085.34 498.95 1086.24L498.95 1086.86L497.66 1086.86Q495.88 1086.86 494.91 1087.59Q494.56 1087.85 494.33 1088.19Q493.95 1088.8 493.95 1089.65Q493.95 1090.43 494.3 1091.03Q494.45 1091.28 494.66 1091.49Q494.77 1091.59 494.9 1091.68Q495.58 1092.18 496.63 1092.18Q497.63 1092.18 498.34 1091.74Q498.81 1091.43 499.15 1090.93Q499.34 1091.54 499.74 1091.81Q500.14 1092.11 500.79 1092.18L501.13 1091.17Q500.78 1091.04 500.6 1090.79ZM509.45 1092L509.45 1083.56L507.98 1083.56L507.98 1092L509.45 1092ZM527 1092L528.27 1092L528.27 1083.56L526.8 1083.56L526.8 1089.59Q526.09 1090.75 525.15 1090.98Q524.92 1091.04 524.68 1091.04Q524.03 1091.04 523.72 1090.71Q523.7 1090.69 523.69 1090.68Q523.39 1090.31 523.39 1089.46L523.39 1083.56L521.92 1083.56L521.92 1089.62Q521.92 1090.82 522.52 1091.5Q522.53 1091.51 522.54 1091.52Q522.68 1091.67 522.84 1091.78Q523.41 1092.18 524.27 1092.18Q525.16 1092.18 525.79 1091.82Q526.41 1091.47 526.89 1090.68L527 1092ZM403.56 1085.19Q404.06 1085.86 404.06 1087.11L404.06 1087.19L400.11 1087.19Q400.22 1085.35 401.13 1084.79Q401.52 1084.54 402.08 1084.54Q402.8 1084.54 403.26 1084.89Q403.43 1085.02 403.56 1085.19ZM462.91 1085.19Q463.41 1085.86 463.41 1087.11L463.41 1087.19L459.45 1087.19Q459.56 1085.35 460.47 1084.79Q460.87 1084.54 461.42 1084.54Q462.14 1084.54 462.6 1084.89Q462.77 1085.02 462.91 1085.19ZM516.71 1090.81Q516.32 1091.02 515.82 1091.02Q515.65 1091.02 515.49 1090.99Q515.12 1090.93 514.79 1090.72Q514.74 1090.68 514.7 1090.66Q514.27 1090.37 513.96 1089.89L513.96 1085.86Q514.67 1084.77 515.56 1084.57Q515.74 1084.54 515.93 1084.54Q516.43 1084.54 516.81 1084.76Q517.14 1084.94 517.39 1085.3Q517.9 1086.06 517.9 1087.78Q517.9 1089.43 517.35 1090.23Q517.08 1090.62 516.71 1090.81ZM445.46 1084.88Q445.93 1084.56 446.62 1084.56Q447.29 1084.56 447.75 1084.87Q448.78 1085.56 448.78 1087.78Q448.78 1090 447.75 1090.68Q447.28 1091.01 446.6 1091.01Q445.92 1091.01 445.45 1090.68Q444.43 1090 444.43 1087.79Q444.43 1085.57 445.46 1084.88ZM497.77 1090.93Q497.4 1091.09 496.97 1091.09Q496.3 1091.09 495.93 1090.75Q495.91 1090.73 495.88 1090.71Q495.52 1090.31 495.52 1089.56Q495.52 1088.96 495.81 1088.56Q496.34 1087.84 497.85 1087.84L498.95 1087.84L498.95 1089.78Q498.48 1090.64 497.77 1090.93ZM532.21 1090.07Q531.98 1089.97 531.69 1089.97Q531.45 1089.97 531.24 1090.06Q531.06 1090.14 530.91 1090.29Q530.76 1090.43 530.68 1090.62Q530.59 1090.82 530.59 1091.06Q530.59 1091.31 530.67 1091.53Q530.69 1091.56 530.71 1091.6Q530.78 1091.75 530.88 1091.86Q530.95 1091.93 531.03 1092L530.4 1094.66L531.45 1094.66L532.52 1092.21Q532.81 1091.56 532.81 1091.06Q532.81 1090.82 532.72 1090.62Q532.64 1090.43 532.49 1090.29Q532.36 1090.16 532.21 1090.07Z" fill="#FFFFFF" fill-opacity="1.000000" fill-rule="evenodd"/>
	<path d="M691.58 844.67Q691.34 844.52 691.01 844.52Q690.71 844.52 690.48 844.64Q690.37 844.71 690.27 844.8Q690.15 844.92 690.08 845.06Q689.98 845.27 689.98 845.52Q689.98 845.8 690.1 846.01Q690.16 846.13 690.27 846.24Q690.35 846.32 690.45 846.38Q690.69 846.52 691.01 846.52Q691.36 846.52 691.61 846.35Q691.69 846.3 691.76 846.24Q691.87 846.13 691.93 846Q692.04 845.79 692.04 845.52Q692.04 845.27 691.95 845.07Q691.88 844.92 691.76 844.8Q691.68 844.72 691.58 844.67ZM599.03 846.04Q598.35 845.78 597.36 845.78Q596.54 845.78 595.83 846.04Q595.42 846.2 595.04 846.44Q594.98 846.47 594.93 846.51Q593.96 847.16 593.39 848.38Q592.78 849.67 592.78 851.48Q592.78 853.28 593.36 854.57Q593.88 855.71 594.75 856.36Q594.87 856.45 594.99 856.52Q595.26 856.69 595.54 856.82Q596.38 857.19 597.39 857.19Q598.43 857.19 599.23 856.84Q600.03 856.48 600.54 855.96L599.79 855Q599.2 855.43 598.67 855.67Q598.14 855.91 597.43 855.91Q596.73 855.91 596.17 855.62Q595.63 855.35 595.23 854.83Q594.4 853.75 594.4 851.48Q594.4 849.14 595.24 848.09Q595.64 847.58 596.16 847.32Q596.73 847.03 597.45 847.03Q597.66 847.03 597.87 847.06Q598.76 847.18 599.58 847.84L600.41 846.87Q599.71 846.29 599.03 846.04ZM653 855.67L653 845.97L651.49 845.97L651.49 857L657.36 857L657.53 855.67L653 855.67ZM645 856.96Q645.34 856.83 645.64 856.61L645.08 855.64Q644.46 855.97 643.96 855.97Q643.46 855.97 643.23 855.72Q643.21 855.7 643.19 855.68Q642.96 855.38 642.96 854.72L642.96 849.7L644.8 849.7L644.96 848.56L642.96 848.56L642.96 846.48L641.48 846.66L641.48 848.56L640.01 848.56L640.01 849.7L641.48 849.7L641.48 854.79Q641.48 855.93 642.05 856.54Q642.07 856.56 642.08 856.57Q642.18 856.67 642.28 856.75Q642.85 857.19 643.75 857.19Q644.42 857.19 645 856.96ZM688.12 856.96Q688.46 856.83 688.76 856.61L688.2 855.64Q687.58 855.97 687.09 855.97Q686.58 855.97 686.35 855.72Q686.33 855.7 686.31 855.68Q686.08 855.38 686.08 854.72L686.08 849.7L687.92 849.7L688.08 848.56L686.08 848.56L686.08 846.48L684.6 846.66L684.6 848.56L683.13 848.56L683.13 849.7L684.6 849.7L684.6 854.79Q684.6 855.93 685.17 856.54Q685.19 856.56 685.2 856.57Q685.3 856.67 685.4 856.75Q685.97 857.19 686.87 857.19Q687.54 857.19 688.12 856.96ZM615.92 848.47Q615.53 848.37 615.08 848.37Q614.65 848.37 614.28 848.52Q613.99 848.64 613.74 848.85Q613.17 849.33 612.83 850.28L612.68 848.56L611.42 848.56L611.42 857L612.89 857L612.89 852.18Q613.17 850.96 613.64 850.39Q613.85 850.14 614.12 849.99Q614.47 849.81 614.91 849.81Q615.26 849.81 615.64 849.91L615.92 848.47ZM622.09 848.47Q621.71 848.37 621.26 848.37Q620.83 848.37 620.46 848.52Q620.17 848.64 619.92 848.85Q619.34 849.33 619.01 850.28L618.86 848.56L617.59 848.56L617.59 857L619.07 857L619.07 852.18Q619.34 850.96 619.82 850.39Q620.03 850.14 620.3 849.99Q620.64 849.81 621.08 849.81Q621.43 849.81 621.82 849.91L622.09 848.47ZM629.63 853.28Q629.66 852.9 629.66 852.53Q629.66 850.58 628.76 849.48Q628.51 849.17 628.2 848.94Q627.4 848.37 626.19 848.37Q625.41 848.37 624.78 848.67Q624.54 848.79 624.32 848.95Q624.24 849.01 624.17 849.07Q623.49 849.63 623.11 850.54Q622.68 851.55 622.68 852.87Q622.68 854.88 623.67 856.03Q623.95 856.37 624.31 856.61Q625.16 857.19 626.41 857.19Q626.96 857.19 627.47 857.07Q628.47 856.83 629.36 856.13L628.72 855.25Q628.15 855.64 627.64 855.81Q627.13 855.99 626.53 855.99Q625.94 855.99 625.48 855.74Q625.19 855.59 624.96 855.33Q624.34 854.68 624.25 853.28L629.63 853.28ZM637.49 848.81Q636.89 848.37 635.98 848.37Q635.46 848.37 635 848.53Q634.75 848.62 634.51 848.76Q634.35 848.85 634.2 848.96Q633.74 849.31 633.4 849.81L633.28 848.56L632.01 848.56L632.01 857L633.48 857L633.48 851.01Q633.93 850.29 634.44 849.91Q634.64 849.76 634.86 849.67Q635.21 849.52 635.63 849.52Q636.2 849.52 636.53 849.81Q636.58 849.85 636.62 849.89Q636.96 850.26 636.96 851.16L636.96 857L638.43 857L638.43 850.95Q638.43 849.87 637.9 849.21Q637.84 849.13 637.78 849.06Q637.65 848.92 637.49 848.81ZM664.22 848.94Q663.37 848.37 662.14 848.37Q661.02 848.37 660.2 848.87Q660.15 848.89 660.11 848.93Q659.9 849.06 659.71 849.23Q659.15 849.73 658.81 850.48Q658.36 851.48 658.36 852.79Q658.36 854.82 659.35 856Q659.66 856.37 660.04 856.62Q660.89 857.19 662.12 857.19Q663.2 857.19 664 856.72Q664.07 856.68 664.14 856.64Q664.35 856.5 664.54 856.33Q665.1 855.83 665.44 855.09Q665.89 854.09 665.89 852.77Q665.89 850.74 664.9 849.55Q664.6 849.19 664.22 848.94ZM672.76 848.59Q672.14 848.37 671.39 848.37Q670.41 848.37 669.67 848.78Q669.55 848.85 669.43 848.93Q669.29 849.03 669.16 849.14Q668.53 849.66 668.15 850.5Q667.71 851.51 667.71 852.85Q667.71 854.88 668.69 856.03Q669.01 856.41 669.41 856.67Q670.24 857.19 671.39 857.19Q671.98 857.19 672.52 857.03Q673.29 856.81 673.96 856.26L673.29 855.3Q672.78 855.64 672.36 855.79Q671.95 855.94 671.45 855.94Q670.81 855.94 670.35 855.65Q670.07 855.47 669.85 855.18Q669.29 854.42 669.29 852.82Q669.29 851.22 669.86 850.41Q670.12 850.02 670.49 849.82Q670.91 849.59 671.45 849.59Q671.96 849.59 672.39 849.74Q672.81 849.89 673.26 850.21L673.96 849.28Q673.39 848.8 672.76 848.59ZM681.66 855.79Q681.48 855.54 681.48 855.03L681.48 851.17Q681.48 849.97 680.89 849.26Q680.82 849.18 680.74 849.1Q680.01 848.37 678.52 848.37Q677.18 848.37 675.61 848.95L675.98 850.02Q677.32 849.57 678.25 849.57Q679.15 849.57 679.58 849.96Q680.01 850.34 680.01 851.23L680.01 851.86L678.72 851.86Q676.94 851.86 675.97 852.58Q675.61 852.85 675.39 853.2Q675 853.79 675 854.64Q675 855.44 675.35 856.02Q675.51 856.27 675.72 856.48Q675.83 856.59 675.95 856.68Q676.63 857.19 677.69 857.19Q678.69 857.19 679.39 856.73Q679.87 856.43 680.21 855.93Q680.4 856.53 680.8 856.82Q681.19 857.11 681.85 857.19L682.19 856.16Q681.83 856.03 681.66 855.79ZM700.05 848.94Q699.2 848.37 697.96 848.37Q696.84 848.37 696.03 848.87Q695.98 848.89 695.93 848.93Q695.72 849.06 695.53 849.23Q694.97 849.73 694.63 850.48Q694.19 851.48 694.19 852.79Q694.19 854.82 695.18 856Q695.48 856.37 695.86 856.62Q696.72 857.19 697.95 857.19Q699.02 857.19 699.83 856.72Q699.9 856.68 699.96 856.64Q700.18 856.5 700.36 856.33Q700.92 855.83 701.26 855.09Q701.71 854.09 701.71 852.77Q701.71 850.74 700.72 849.55Q700.42 849.19 700.05 848.94ZM709.62 848.81Q709.02 848.37 708.11 848.37Q707.59 848.37 707.12 848.53Q706.87 848.62 706.64 848.76Q706.48 848.85 706.33 848.96Q705.87 849.31 705.53 849.81L705.4 848.56L704.14 848.56L704.14 857L705.61 857L705.61 851.01Q706.06 850.29 706.57 849.91Q706.77 849.76 706.99 849.67Q707.34 849.52 707.76 849.52Q708.33 849.52 708.66 849.81Q708.71 849.85 708.75 849.89Q709.08 850.26 709.08 851.16L709.08 857L710.56 857L710.56 850.95Q710.56 849.87 710.03 849.21Q709.97 849.13 709.91 849.06Q709.77 848.92 709.62 848.81ZM607.11 857L608.38 857L608.38 848.56L606.91 848.56L606.91 854.58Q606.2 855.75 605.26 855.98Q605.04 856.03 604.79 856.03Q604.14 856.03 603.83 855.71Q603.82 855.69 603.8 855.68Q603.5 855.32 603.5 854.45L603.5 848.56L602.03 848.56L602.03 854.61Q602.03 855.82 602.63 856.49Q602.64 856.5 602.65 856.52Q602.79 856.66 602.95 856.78Q603.52 857.19 604.38 857.19Q605.27 857.19 605.9 856.83Q606.52 856.47 607 855.68L607.11 857ZM691.76 857L691.76 848.56L690.28 848.56L690.28 857L691.76 857ZM627.71 850.19Q628.21 850.85 628.21 852.1L628.21 852.19L624.25 852.19Q624.36 850.35 625.27 849.79Q625.67 849.54 626.22 849.54Q626.94 849.54 627.4 849.89Q627.57 850.02 627.71 850.19ZM660.98 849.87Q661.45 849.55 662.14 849.55Q662.81 849.55 663.27 849.86Q664.3 850.55 664.3 852.77Q664.3 855 663.27 855.69Q662.8 856 662.12 856Q661.44 856 660.97 855.69Q659.95 854.99 659.95 852.79Q659.95 850.57 660.98 849.87ZM696.8 849.87Q697.27 849.55 697.96 849.55Q698.63 849.55 699.1 849.86Q700.12 850.55 700.12 852.77Q700.12 855 699.09 855.69Q698.63 856 697.95 856Q697.26 856 696.8 855.69Q695.77 854.99 695.77 852.79Q695.77 850.57 696.8 849.87ZM678.83 855.93Q678.46 856.09 678.03 856.09Q677.35 856.09 676.99 855.75Q676.96 855.73 676.94 855.7Q676.57 855.32 676.57 854.56Q676.57 853.95 676.86 853.56Q677.4 852.84 678.91 852.84L680.01 852.84L680.01 854.77Q679.54 855.64 678.83 855.93Z" fill="#FFFFFF" fill-opacity="1.000000" fill-rule="evenodd"/>
</svg>
