<svg width="294.000000" height="349.000000" viewBox="0 0 294 349" fill="none" xmlns="http://www.w3.org/2000/svg" xmlns:xlink="http://www.w3.org/1999/xlink">
	<desc>
			Created with Pixso.
	</desc>
	<defs/>
	<path id="Shape" d="M237.631 30.7831C212.051 10.3082 179.607 -0.966309 146.191 -0.966309C112.777 -0.966309 80.2986 10.3082 54.7515 30.7831C21.3701 57.5144 1.68231 95.5203 -0.661133 137.773C-2.97137 179.459 12.6649 220.309 42.196 249.817L138.487 346.033C142.271 349.78 148.833 349.813 152.617 346.066L250.288 249.748C279.752 220.306 295.355 179.49 293.078 137.773C290.701 95.5177 271.047 57.5118 237.631 30.7822L237.631 30.7831ZM80.5669 145.908C80.5669 182.073 109.997 211.481 146.191 211.481C182.385 211.481 211.849 182.074 211.816 145.908C211.816 109.743 182.386 80.335 146.191 80.335C109.998 80.335 80.5669 109.742 80.5669 145.908Z" clip-rule="evenodd" fill="#FFFFFF" fill-opacity="1.000000" fill-rule="evenodd"/>
</svg>
