<svg width="24.000000" height="21.000000" viewBox="0 0 24 21" fill="none" xmlns="http://www.w3.org/2000/svg" xmlns:xlink="http://www.w3.org/1999/xlink">
	<desc>
			Created with Pixso.
	</desc>
	<defs/>
	<path d="M14.86 19.58L23.08 11.43C23.83 10.68 23.83 9.46 23.08 8.71L14.86 0.56C14.1 -0.19 12.88 -0.19 12.12 0.56C11.37 1.31 11.37 2.52 12.12 3.28L16.92 8.04L1.51 8.04C0.39 8.04 -0.51 8.94 -0.51 10.06C-0.51 11.17 0.39 12.07 1.51 12.07L16.95 12.07L12.12 16.86C11.37 17.61 11.37 18.83 12.12 19.58C12.87 20.33 14.1 20.33 14.86 19.58L14.86 19.58Z" fill="#FFFFFF" fill-opacity="1.000000" fill-rule="nonzero"/>
</svg>
