<svg width="10.000000" height="13.000000" viewBox="0 0 10 13" fill="none" xmlns="http://www.w3.org/2000/svg" xmlns:xlink="http://www.w3.org/1999/xlink">
	<desc>
			Created with Pixso.
	</desc>
	<defs/>
	<path d="M7.7865 0.459351C6.84854 -0.291992 5.65894 -0.705688 4.43372 -0.705688C3.2085 -0.705688 2.01764 -0.291992 1.0809 0.459351C-0.143066 1.44031 -0.86496 2.83496 -0.950897 4.38538C-1.03558 5.91516 -0.46228 7.41406 0.620544 8.49695L4.15121 12.0276C4.28995 12.165 4.53058 12.1664 4.66928 12.0288L8.25058 8.49438C9.33093 7.41406 9.90305 5.91626 9.81955 4.38538C9.73239 2.83484 9.01175 1.44019 7.7865 0.459351L7.7865 0.459351ZM2.02747 4.68457C2.02747 6.01172 3.10657 7.09082 4.43372 7.09082C5.7608 7.09082 6.84119 6.01172 6.83994 4.68457C6.83994 3.35754 5.76083 2.27844 4.43372 2.27844C3.1066 2.27844 2.02747 3.35754 2.02747 4.68457Z" clip-rule="evenodd" fill="#FFFFFF" fill-opacity="1.000000" fill-rule="evenodd"/>
</svg>
