<svg width="465.000000" height="146.000000" viewBox="0 0 465 146" fill="none" xmlns="http://www.w3.org/2000/svg" xmlns:xlink="http://www.w3.org/1999/xlink">
	<desc>
			Created with Pixso.
	</desc>
	<defs/>
	<g opacity="0.020000">
		<path d="M85.66 4.01Q73.6 -0.58 57.78 -0.58Q42.99 -0.58 31.08 4.5Q20.89 8.85 14.49 16.41Q13.43 17.66 12.47 19Q10.44 21.84 9.03 24.97Q5.78 32.14 5.78 40.77Q5.78 51.99 10.59 60.48Q12.57 63.97 15.35 67Q24.97 77.4 48.6 84.82Q58.42 87.8 63.5 90.29Q68.58 92.78 70.58 95.9Q72.58 98.98 72.58 103.81Q72.58 107.4 71.12 110.23Q69.82 112.77 67.35 114.7Q62.18 118.8 52.8 118.8Q50.35 118.8 47.93 118.55Q32.53 116.95 18.18 105.18L-0.03 125.39Q5.8 130.99 12.56 135.04Q30.2 145.61 54.17 145.61Q71.6 145.61 84.49 139.99Q96.64 134.7 103.37 125.46Q103.78 124.9 104.17 124.32Q106 121.61 107.34 118.68Q111.01 110.67 111.01 100.98Q111.01 84.77 103.12 74.83Q102.16 73.62 101.1 72.51Q91.18 62.21 69.8 55.37Q58.61 51.81 53.39 49.42Q48.21 46.98 46.02 44.39Q45.64 43.95 45.33 43.47Q43.82 41.12 43.82 37.8Q43.82 34.58 45.23 32.2Q46.28 30.42 48.12 29.1Q52.41 25.98 60.62 25.98Q63.18 25.98 65.72 26.28Q78.73 27.84 90.79 37.41L107.39 17.78Q100.98 11.66 93.46 7.58Q89.7 5.54 85.66 4.01ZM230.77 118.72Q235.8 108.27 235.8 95.41L235.8 2.98L198.59 2.98L198.59 94.19Q198.59 106.6 194.19 112.6Q193.45 113.61 192.55 114.45Q188.11 118.61 179.79 118.61Q171.33 118.61 166.81 114.39Q165.98 113.61 165.29 112.7Q160.8 106.79 160.8 94.19L160.8 2.98L123.78 2.98L123.78 95.41Q123.78 113.02 131.97 125.06Q134.57 128.87 137.99 132.13Q152.2 145.61 179.79 145.61Q198 145.61 210.6 139.11Q220.14 134.16 226.06 126.44Q227.97 123.96 229.5 121.19Q230.17 119.98 230.77 118.72ZM292.2 90.77L302.4 90.77L329.6 142L370.81 142L336.19 83.99Q349.57 77 355.67 68.22Q361.78 59.38 361.78 46.19Q361.78 29.94 353.88 19.91Q351.07 16.35 347.28 13.58Q332.77 2.98 303.38 2.98L255.19 2.98L255.19 142L292.2 142L292.2 90.77ZM379.19 2.98L379.19 142L416.2 142L416.2 88.77L455.41 88.77L455.41 62.6L416.2 62.6L416.2 29.2L460.78 29.2L464.59 2.98L379.19 2.98ZM304.6 65.58L292.2 65.58L292.2 28.81L302.6 28.81Q313.19 28.81 318.47 33.01Q319.32 33.69 320.04 34.48Q323.79 38.65 323.79 46.19Q323.79 55.98 318.9 60.83Q314.1 65.58 304.6 65.58Z" fill="#FFFFFF" fill-opacity="1.000000" fill-rule="evenodd"/>
	</g>
</svg>
